<svg width="80" height="92" viewBox="0 0 80 92" fill="none" xmlns="http://www.w3.org/2000/svg">
<path d="M36.1306 56.1097C33.6135 53.6391 29.543 53.6391 27.0258 56.1097L0.401855 82.2555V91.1778H9.50665L36.1306 65.0461C38.6478 62.5755 38.6478 58.5802 36.1306 56.1097Z" fill="white"/>
<path d="M52.9882 16.4099L61.2299 11.0875C61.1868 11.0593 60.5395 10.3957 60.5108 10.3675C54.1245 4.45221 45.5087 0.823975 36.0443 0.823975C16.3532 0.823975 0.401855 16.4804 0.401855 35.7934C0.401855 55.1063 16.3532 70.7769 36.0443 70.7769C36.1738 70.7769 36.3032 70.7628 36.4327 70.7628C36.5477 70.7628 36.6628 70.7769 36.7923 70.7769C45.408 70.7769 52.384 63.9298 52.384 55.4734C52.384 48.5416 47.6806 47.4263 41.2512 47.2569C23.4731 40.7204 21.0567 28.071 30.1471 17.6663C39.7984 6.62633 52.9882 16.4099 52.9882 16.4099Z" fill="#836BD1"/>
<path d="M41.9848 35.99C45.3689 35.99 48.1123 33.2974 48.1123 29.9759C48.1123 26.6544 45.3689 23.9618 41.9848 23.9618C38.6008 23.9618 35.8574 26.6544 35.8574 29.9759C35.8574 33.2974 38.6008 35.99 41.9848 35.99Z" fill="white"/>
<path d="M79.5974 91.1771H66.7242C66.7242 75.4218 55.8933 61.6994 40.3735 57.7747C39.0646 57.45 32.405 55.6853 28.205 53.0171C19.9057 48.2312 14.7563 39.4218 14.7563 29.9771C14.7563 15.2382 26.968 3.26648 41.97 3.26648C49.2337 3.26648 56.0803 6.04766 61.2153 11.0877L52.1105 20.0241C49.4063 17.37 45.7961 15.9018 41.97 15.9018C34.0591 15.9018 27.6153 22.2265 27.6153 29.9912C27.6153 35.003 30.3625 39.6759 34.7927 42.1888L35.1235 42.3865C36.605 43.3465 40.2296 44.7018 43.5666 45.5488C64.7824 50.8994 79.5974 69.6618 79.5974 91.1771Z" fill="white"/>
</svg>
