<svg width="281" height="56" viewBox="0 0 281 56" fill="none" xmlns="http://www.w3.org/2000/svg">
<path d="M32.0711 6.77814C34.9686 3.4879 39.0516 1.84277 44.3858 1.84277C49.72 1.84277 53.7371 3.4879 56.6347 6.77814C59.5323 10.0684 60.9811 14.2141 60.9811 19.3469C60.9811 24.4797 59.5323 28.6254 56.6347 31.9156C53.7371 35.2059 49.72 36.851 44.3858 36.851C39.0516 36.851 34.9686 35.2059 32.0711 31.9156C29.1735 28.6254 27.7905 24.4797 27.7905 19.3469C27.7905 14.2141 29.1735 10.0684 32.0711 6.77814ZM35.5613 19.3469C35.5613 26.1906 38.6565 29.9415 44.3199 29.9415C49.9834 29.9415 53.0785 26.2564 53.0785 19.3469C53.0785 12.4374 49.9834 8.75229 44.3199 8.75229C38.6565 8.75229 35.5613 12.5032 35.5613 19.3469Z" fill="white"/>
<path d="M68.1587 33.2315C65.4587 30.8626 64.1416 27.3749 64.1416 22.9002V2.30322H71.7807V22.8344C71.7807 27.6381 74.0197 30.0729 78.5637 30.0729C83.1076 30.0729 85.4125 27.7039 85.4125 22.8344V2.30322H93.1175V22.9002C93.1175 27.3749 91.7345 30.8626 89.0345 33.2315C86.3345 35.6005 82.8442 36.8508 78.6295 36.8508C74.349 36.8508 70.8587 35.6005 68.1587 33.2315Z" fill="white"/>
<path d="M96.2788 36.3902V2.30322H103.918V29.6123H119.394V36.456H96.2788V36.3902Z" fill="white"/>
<path d="M122.621 36.3902V2.30322H134.409C139.545 2.30322 143.76 3.88254 147.053 7.04118C150.345 10.1998 152.057 14.2797 152.057 19.3467C152.057 24.1505 150.411 28.2304 147.118 31.5206C143.826 34.8109 139.611 36.3902 134.409 36.3902H122.621ZM129.799 29.6123H134.013C140.599 29.6123 144.287 26.322 144.287 19.3467C144.287 12.503 140.599 9.14694 134.013 9.14694H129.799V29.6123Z" fill="white"/>
<path d="M172.077 2.30322L183.799 35.9295V36.3902H175.304L173.328 29.9413H160.684L158.708 36.3902H150.608V35.9295L162.33 2.30322H172.077ZM162.726 23.2292H171.221L167.072 10.0024H166.874L162.726 23.2292Z" fill="white"/>
<path d="M186.96 36.3902V2.30322H195.982L208.56 24.5453H208.758V2.30322H216.331V36.3902H207.243L194.665 14.2797H194.467V36.3902H186.96Z" fill="white"/>
<path d="M223.838 31.9156C220.941 28.6254 219.558 24.4797 219.558 19.4127C219.558 14.2799 220.941 10.0684 223.838 6.77814C226.736 3.4879 230.753 1.84277 236.087 1.84277C240.302 1.84277 243.858 3.09307 246.624 5.65946C249.39 8.22585 250.97 11.3845 251.234 15.1354H243.463C243.133 11.5819 240.631 8.75229 236.153 8.75229C230.489 8.75229 227.394 12.5032 227.394 19.3469C227.394 26.1906 230.489 29.9415 236.153 29.9415C240.433 29.9415 242.87 27.4409 243.529 23.8216H251.299C250.97 27.5067 249.39 30.5337 246.624 33.0343C243.858 35.5349 240.368 36.7852 236.219 36.7852C230.819 36.851 226.736 35.2059 223.838 31.9156Z" fill="white"/>
<path d="M254.395 36.3902V2.30322H278.761V9.14694H262.034V15.4642H277.246V22.3079H262.034V29.6123H278.761V36.3902H254.395Z" fill="white"/>
<path d="M9.5488 41.4572C12.3493 41.4572 14.6196 39.1886 14.6196 36.3902C14.6196 33.5918 12.3493 31.3232 9.5488 31.3232C6.74829 31.3232 4.47803 33.5918 4.47803 36.3902C4.47803 39.1886 6.74829 41.4572 9.5488 41.4572Z" fill="#836BD1"/>
<path d="M28.5147 36.3902H20.6781C20.6781 31.2574 17.2536 26.8485 12.3146 25.5982C11.5902 25.4008 9.15357 24.7427 7.44136 23.624C3.95109 21.5841 1.84375 17.7674 1.84375 13.7533C1.84375 7.43601 6.98038 2.30322 13.3024 2.30322C16.3975 2.30322 19.2293 3.48771 21.4025 5.65927L15.8707 11.1869C15.2122 10.5288 14.2902 10.134 13.3024 10.134C11.3268 10.134 9.6804 11.7791 9.6804 13.7533C9.6804 15.0694 10.4048 16.2539 11.5243 16.9119L11.7219 17.0435C11.9853 17.2409 13.1048 17.7016 14.2902 18.0306C22.6537 20.1364 28.5147 27.7039 28.5147 36.3902Z" fill="white"/>
<path d="M122.621 54.75V42.2471H127.626C129.799 42.2471 131.248 43.4974 131.248 45.5373C131.248 46.7876 130.721 47.6431 129.667 48.1037V48.1695C131.05 48.696 131.708 49.7488 131.708 51.1965C131.708 53.4997 130.194 54.8158 127.691 54.8158H122.621V54.75ZM124.135 47.5773H127.23C128.745 47.5773 129.667 46.8534 129.667 45.4715C129.667 44.287 128.877 43.629 127.428 43.629H124.135V47.5773ZM124.135 53.3023H127.56C129.074 53.3023 130.128 52.4468 130.128 51.1307C130.128 49.683 129.206 48.9592 127.56 48.9592H124.135V53.3023Z" fill="#836BD1"/>
<path d="M137.767 54.75V49.5514L133.289 42.4445V42.2471H135.067L138.557 48.0379H138.623L142.114 42.2471H143.826V42.4445L139.348 49.5514V54.75H137.767Z" fill="#836BD1"/>
<path d="M156.799 42.1812L161.409 54.5525V54.7499H159.762L158.577 51.4596H153.111L151.926 54.7499H150.279V54.5525L154.889 42.1812H156.799ZM153.572 50.0777H158.05L155.877 43.9579H155.811L153.572 50.0777Z" fill="#836BD1"/>
<path d="M163.779 54.7499V42.247H165.492L171.879 52.1835H171.945V42.1812H173.46V54.6841H171.748L165.36 44.7475H165.294V54.6841H163.779V54.7499Z" fill="#836BD1"/>
<path d="M182.351 42.1812L186.96 54.5525V54.7499H185.314L184.129 51.4596H178.663L177.477 54.7499H175.831V54.5525L180.441 42.1812H182.351ZM179.124 50.0777H183.602L181.429 43.9579H181.363L179.124 50.0777Z" fill="#836BD1"/>
<path d="M195.39 53.1708C194.468 51.9864 193.941 50.4728 193.941 48.4987C193.941 46.5245 194.402 44.9452 195.39 43.8265C196.378 42.642 197.695 42.0498 199.473 42.0498C202.436 42.0498 204.214 43.6949 204.478 46.3929H202.897C202.7 44.6162 201.58 43.4975 199.473 43.4975C196.575 43.4975 195.521 45.9323 195.521 48.4987C195.521 51.0651 196.509 53.4341 199.473 53.4341C201.448 53.4341 202.568 52.5128 202.897 50.6702H204.478C204.148 53.3024 202.37 54.8818 199.473 54.8818C197.695 54.8818 196.312 54.2895 195.39 53.1708Z" fill="#836BD1"/>
<path d="M212.248 42.1812L216.858 54.5525V54.7499H215.212L214.026 51.4596H208.56L207.375 54.7499H205.729V54.5525L210.338 42.1812H212.248ZM209.021 50.0777H213.499L211.326 43.9579H211.26L209.021 50.0777Z" fill="#836BD1"/>
<path d="M228.778 54.5526V54.75H227.066L223.773 49.8146H220.744V54.75H219.163V42.2471H224.102C225.353 42.2471 226.341 42.5761 227 43.3C227.724 44.0238 228.053 44.8793 228.053 45.998C228.053 47.8405 227 49.1566 225.353 49.6172L228.778 54.5526ZM220.744 43.629V48.3669H224.036C225.617 48.3669 226.473 47.5115 226.473 45.998C226.473 44.4844 225.617 43.629 224.036 43.629H220.744Z" fill="#836BD1"/>
<path d="M231.214 54.75V42.2471H235.363C237.141 42.2471 238.458 42.8393 239.446 43.958C240.434 45.0767 240.961 46.5902 240.961 48.4985C240.961 50.3411 240.5 51.8546 239.512 53.0391C238.59 54.2236 237.207 54.8158 235.363 54.8158H231.214V54.75ZM232.795 53.3023H235.231C236.614 53.3023 237.602 52.8417 238.327 51.9204C239.051 50.9991 239.38 49.8146 239.38 48.4327C239.38 47.0508 239.051 45.8663 238.327 45.0109C237.602 44.0896 236.614 43.629 235.231 43.629H232.795V53.3023Z" fill="#836BD1"/>
<path d="M252.814 43.8264C253.736 45.0109 254.197 46.5244 254.197 48.4328C254.197 50.3411 253.736 51.8546 252.814 53.0391C251.892 54.2236 250.509 54.8158 248.666 54.8158C246.822 54.8158 245.439 54.2236 244.517 53.0391C243.595 51.8546 243.134 50.2753 243.134 48.367C243.134 46.4586 243.595 44.9451 244.517 43.7606C245.439 42.5761 246.822 41.9839 248.666 41.9839C250.509 42.0497 251.892 42.6419 252.814 43.8264ZM244.714 48.4328C244.714 49.8147 245.044 50.9992 245.636 51.9862C246.295 52.9075 247.283 53.3681 248.666 53.3681C250.048 53.3681 251.036 52.9075 251.629 51.9862C252.288 51.065 252.551 49.8805 252.551 48.4328C252.551 47.0509 252.222 45.8664 251.629 44.8793C250.97 43.958 250.048 43.4974 248.666 43.4974C245.636 43.4974 244.714 45.9322 244.714 48.4328Z" fill="#836BD1"/>
<path d="M256.173 50.9335H257.753C257.819 52.5128 258.939 53.4341 260.914 53.4341C262.956 53.4341 264.009 52.7102 264.009 51.2625C264.009 50.1438 263.219 49.5516 261.77 49.2225L259.927 48.8277C257.688 48.3671 256.568 47.3142 256.568 45.4717C256.568 43.3659 258.148 42.0498 260.914 42.0498C262.231 42.0498 263.351 42.3788 264.141 43.1027C264.931 43.7607 265.327 44.682 265.392 45.8007H263.812C263.746 44.4188 262.758 43.4975 260.914 43.4975C259.136 43.4975 258.214 44.1556 258.214 45.4717C258.214 46.3929 258.939 47.051 260.322 47.3142L262.034 47.6432C264.405 48.1039 265.59 49.3542 265.59 51.2625C265.59 53.4999 263.812 54.8818 260.914 54.8818C257.951 54.8818 256.239 53.3683 256.173 50.9335Z" fill="#836BD1"/>
<path d="M277.378 43.8264C278.3 45.0109 278.761 46.5244 278.761 48.4328C278.761 50.3411 278.3 51.8546 277.378 53.0391C276.456 54.2236 275.073 54.8158 273.23 54.8158C271.386 54.8158 270.003 54.2236 269.081 53.0391C268.159 51.8546 267.698 50.2753 267.698 48.367C267.698 46.4586 268.159 44.9451 269.081 43.7606C270.003 42.5761 271.386 41.9839 273.23 41.9839C275.073 41.9839 276.456 42.6419 277.378 43.8264ZM269.278 48.4328C269.278 49.8147 269.608 50.9992 270.2 51.9862C270.859 52.9075 271.847 53.3681 273.23 53.3681C274.612 53.3681 275.6 52.9075 276.193 51.9862C276.851 51.065 277.115 49.8805 277.115 48.4328C277.115 47.0509 276.786 45.8664 276.193 44.8793C275.534 43.958 274.612 43.4974 273.23 43.4974C270.266 43.4974 269.278 45.9322 269.278 48.4328Z" fill="#836BD1"/>
</svg>
