<svg width="39" height="57" viewBox="0 0 39 57" fill="none" xmlns="http://www.w3.org/2000/svg">
<path d="M18.675 49.5547C18.675 45.4719 15.3344 42.1495 11.2291 42.1495C7.12388 42.1495 3.78333 45.4719 3.78333 49.5547C3.78333 53.6376 7.12388 56.9599 11.2291 56.9599C15.3344 57 18.675 53.6776 18.675 49.5547Z" fill="#836BD1"/>
<path d="M39 49.5548H27.5697C27.5697 42.1496 22.5387 35.665 15.3344 33.8237C14.2879 33.5435 10.7059 32.5829 8.25077 30.9817C3.13932 28.0197 0 22.5358 0 16.6517C0 7.48525 7.52632 0 16.743 0C21.2105 0 25.4365 1.72121 28.5759 4.88343L20.4861 12.9291C19.4799 11.9284 18.1517 11.368 16.743 11.368C13.805 11.368 11.4303 13.7296 11.4303 16.6517C11.4303 18.533 12.4365 20.2942 14.0867 21.2149L14.3684 21.415C14.8111 21.6952 16.3808 22.3757 18.1517 22.816C30.4675 25.9382 39 36.9459 39 49.5548Z" fill="black"/>
</svg>
