<svg width="11" height="8" viewBox="0 0 11 8" fill="none" xmlns="http://www.w3.org/2000/svg">
<path fill-rule="evenodd" clip-rule="evenodd" d="M6.16534 0.19355L6.21109 0.146447C6.40936 -0.0337954 6.72133 -0.0476601 6.9371 0.104852L6.98891 0.146447L10.8389 3.64645L10.8617 3.66843L10.892 3.70235L10.9314 3.75797L10.9608 3.81433L10.9803 3.867L10.9962 3.94095L11 4L10.9985 4.03762L10.9889 4.10036L10.9726 4.15607L10.9485 4.21161L10.9197 4.26035L10.8792 4.31272L10.8389 4.35355L6.98891 7.85355C6.77412 8.04882 6.42588 8.04882 6.21109 7.85355C6.01283 7.67331 5.99757 7.3897 6.16534 7.19355L6.21109 7.14645L9.1212 4.5H0.55C0.246243 4.5 0 4.27614 0 4C0 3.72386 0.246243 3.5 0.55 3.5H9.1223L6.21109 0.853553C6.01283 0.673311 5.99757 0.389696 6.16534 0.19355L6.21109 0.146447L6.16534 0.19355Z" fill="black"/>
</svg>
