<svg width="24" height="25" viewBox="0 0 24 25" fill="none" xmlns="http://www.w3.org/2000/svg">
<path d="M12 2.41693C15.1546 2.41693 15.525 2.43158 16.7718 2.49017C17.9249 2.54388 18.5484 2.74408 18.9656 2.91498C19.5187 3.13959 19.9125 3.40326 20.325 3.83295C20.7375 4.26263 20.9953 4.67279 21.2062 5.24896C21.3656 5.68353 21.5625 6.33295 21.614 7.53412C21.6703 8.83295 21.6843 9.21869 21.6843 12.5048C21.6843 15.791 21.6703 16.1767 21.614 17.4755C21.5625 18.6767 21.3703 19.3261 21.2062 19.7607C20.9906 20.3369 20.7375 20.747 20.325 21.1767C19.9125 21.6064 19.5187 21.8749 18.9656 22.0947C18.5484 22.2607 17.9249 22.4658 16.7718 22.5195C15.525 22.5781 15.1546 22.5927 12 22.5927C8.84526 22.5927 8.47495 22.5781 7.22808 22.5195C6.07495 22.4658 5.45151 22.2656 5.03433 22.0947C4.4812 21.8701 4.08745 21.6064 3.67495 21.1767C3.26245 20.747 3.00464 20.3369 2.7937 19.7607C2.63433 19.3261 2.43745 18.6767 2.38589 17.4755C2.32964 16.1767 2.31558 15.791 2.31558 12.5048C2.31558 9.21869 2.32964 8.83295 2.38589 7.53412C2.43745 6.33295 2.62964 5.68353 2.7937 5.24896C3.00933 4.67279 3.26245 4.26263 3.67495 3.83295C4.08745 3.40326 4.4812 3.1347 5.03433 2.91498C5.45151 2.74896 6.07495 2.54388 7.22808 2.49017C8.47495 2.4267 8.84526 2.41693 12 2.41693ZM12 0.200134C8.7937 0.200134 8.39058 0.214783 7.12964 0.273376C5.87339 0.33197 5.01558 0.541931 4.26558 0.844665C3.48745 1.15717 2.8312 1.58197 2.17495 2.26556C1.5187 2.94916 1.11558 3.63763 0.810889 4.4433C0.520264 5.22455 0.318701 6.1181 0.262451 7.43158C0.206201 8.74017 0.192139 9.1601 0.192139 12.4999C0.192139 15.8398 0.206201 16.2597 0.262451 17.5732C0.318701 18.8818 0.520264 19.7753 0.810889 20.5615C1.11089 21.372 1.5187 22.0556 2.17495 22.7392C2.8312 23.4228 3.49214 23.8427 4.26558 24.1601C5.01558 24.4628 5.87339 24.6728 7.13433 24.7314C8.39526 24.79 8.7937 24.8046 12.0046 24.8046C15.2156 24.8046 15.614 24.79 16.875 24.7314C18.1312 24.6728 18.989 24.4628 19.7437 24.1601C20.5218 23.8476 21.1781 23.4228 21.8343 22.7392C22.4906 22.0556 22.8937 21.3671 23.1984 20.5615C23.489 19.7802 23.6906 18.8867 23.7468 17.5732C23.8031 16.2597 23.8171 15.8447 23.8171 12.4999C23.8171 9.15521 23.8031 8.74017 23.7468 7.4267C23.6906 6.1181 23.489 5.22455 23.1984 4.43842C22.8984 3.62787 22.4906 2.94427 21.8343 2.26068C21.1781 1.57709 20.5171 1.15717 19.7437 0.839783C18.9937 0.537048 18.1359 0.327087 16.875 0.268494C15.6093 0.214783 15.2062 0.200134 12 0.200134Z" fill="white"/>
<path d="M12 6.18158C8.65308 6.18158 5.93433 9.00873 5.93433 12.4999C5.93433 15.9911 8.65308 18.8183 12 18.8183C15.3468 18.8183 18.0656 15.9863 18.0656 12.4999C18.0656 9.01361 15.3468 6.18158 12 6.18158ZM12 16.6015C9.82495 16.6015 8.06245 14.7656 8.06245 12.4999C8.06245 10.2343 9.82495 8.39838 12 8.39838C14.175 8.39838 15.9375 10.2343 15.9375 12.4999C15.9375 14.7656 14.175 16.6015 12 16.6015Z" fill="white"/>
<path d="M18.3045 7.40704C19.0864 7.40704 19.7202 6.74684 19.7202 5.93243C19.7202 5.11803 19.0864 4.45782 18.3045 4.45782C17.5227 4.45782 16.8889 5.11803 16.8889 5.93243C16.8889 6.74684 17.5227 7.40704 18.3045 7.40704Z" fill="white"/>
</svg>
