<svg width="21" height="17" viewBox="0 0 21 17" fill="none" xmlns="http://www.w3.org/2000/svg">
<path fill-rule="evenodd" clip-rule="evenodd" d="M17.208 0.0341797C18.8649 0.0341797 20.208 1.37733 20.208 3.03418V13.0342C20.208 14.691 18.8649 16.0342 17.208 16.0342H3.20801C1.55115 16.0342 0.208008 14.691 0.208008 13.0342V3.03418C0.208008 1.37733 1.55115 0.0341797 3.20801 0.0341797H17.208ZM18.208 3.36218L10.8665 9.78676C10.5209 10.0892 10.0191 10.1144 9.64742 9.86236L9.5495 9.78676L2.20801 3.36318V13.0342C2.20801 13.5865 2.65572 14.0342 3.20801 14.0342H17.208C17.7603 14.0342 18.208 13.5865 18.208 13.0342V3.36218ZM16.688 2.03418H3.72601L10.208 7.70541L16.688 2.03418Z" fill="#FF295C"/>
</svg>
