<svg width="18" height="21" viewBox="0 0 18 21" fill="none" xmlns="http://www.w3.org/2000/svg">
<path fill-rule="evenodd" clip-rule="evenodd" d="M9 0.433105C13.9706 0.433105 18 4.41883 18 9.33547C18 12.589 15.2777 16.0289 9.94825 19.7763L9 20.4331L8.4278 20.0382C2.85042 16.189 0 12.6646 0 9.33547C0 4.41883 4.02944 0.433105 9 0.433105ZM9 2.41141C5.13401 2.41141 2 5.51142 2 9.33547C2 11.738 4.29672 14.6696 9 18.0149C13.7033 14.6696 16 11.738 16 9.33547C16 5.51142 12.866 2.41141 9 2.41141ZM9 4.43311C11.2091 4.43311 13 6.22397 13 8.43311C13 10.6422 11.2091 12.4331 9 12.4331C6.79086 12.4331 5 10.6422 5 8.43311C5 6.22397 6.79086 4.43311 9 4.43311ZM9 6.43311C7.89543 6.43311 7 7.32854 7 8.43311C7 9.53767 7.89543 10.4331 9 10.4331C10.1046 10.4331 11 9.53767 11 8.43311C11 7.32854 10.1046 6.43311 9 6.43311Z" fill="#FF295C"/>
</svg>
