<svg width="21" height="21" viewBox="0 0 21 21" fill="none" xmlns="http://www.w3.org/2000/svg">
<path fill-rule="evenodd" clip-rule="evenodd" d="M7.76271 8.4673C8.04091 8.28184 8.20801 7.96961 8.20801 7.63525V3.63525C8.20801 1.9784 6.86486 0.635254 5.20801 0.635254H1.20801C0.655723 0.635254 0.208008 1.08297 0.208008 1.63525C0.208008 11.5764 9.26688 20.6353 19.208 20.6353C19.7603 20.6353 20.208 20.1875 20.208 19.6353V15.6353C20.208 13.9784 18.8649 12.6353 17.208 12.6353H13.208C12.8737 12.6353 12.5614 12.8024 12.376 13.0806L10.4706 15.9386C8.3954 14.5967 6.57726 12.8244 5.17875 10.7842L4.90469 10.3726L7.76271 8.4673ZM13.7432 14.6353H17.208C17.7603 14.6353 18.208 15.083 18.208 15.6353V18.6006C16.2708 18.4665 14.3801 17.9484 12.6168 17.1268L12.2121 16.9319L13.7432 14.6353ZM2.24268 2.63525H5.20801C5.76029 2.63525 6.20801 3.08297 6.20801 3.63525V7.10007L3.91139 8.63115C2.97683 6.7537 2.38704 4.72151 2.24268 2.63525Z" fill="#FF295C"/>
</svg>
